<svg xmlns="http://www.w3.org/2000/svg" xmlns:xlink="http://www.w3.org/1999/xlink" width="100" zoomAndPan="magnify" viewBox="0 0 75 30.000001" height="40" preserveAspectRatio="xMidYMid meet" version="1.2"><defs><clipPath id="2c58aa4ec1"><path d="M 1.210938 5 L 16 5 L 16 20 L 1.210938 20 Z M 1.210938 5 "/></clipPath><clipPath id="10cb6416d6"><path d="M 0.484375 15.847656 L 9.800781 1.964844 L 18.933594 8.09375 L 9.617188 21.976562 Z M 0.484375 15.847656 "/></clipPath><clipPath id="0e71ff70ce"><path d="M 0.484375 15.847656 L 9.800781 1.964844 L 18.933594 8.09375 L 9.617188 21.976562 Z M 0.484375 15.847656 "/></clipPath><clipPath id="c7cbcf3fd5"><path d="M 2 5 L 16 5 L 16 20 L 2 20 Z M 2 5 "/></clipPath><clipPath id="6762b0a5bf"><path d="M 0.484375 15.847656 L 9.800781 1.964844 L 18.933594 8.09375 L 9.617188 21.976562 Z M 0.484375 15.847656 "/></clipPath><clipPath id="a508de66ae"><path d="M 0.484375 15.847656 L 9.800781 1.964844 L 18.933594 8.09375 L 9.617188 21.976562 Z M 0.484375 15.847656 "/></clipPath><clipPath id="6632f9bebc"><path d="M 3 15 L 7 15 L 7 18 L 3 18 Z M 3 15 "/></clipPath><clipPath id="f5005736b0"><path d="M 0.484375 15.847656 L 9.800781 1.964844 L 18.933594 8.09375 L 9.617188 21.976562 Z M 0.484375 15.847656 "/></clipPath><clipPath id="ef04c23264"><path d="M 0.484375 15.847656 L 9.800781 1.964844 L 18.933594 8.09375 L 9.617188 21.976562 Z M 0.484375 15.847656 "/></clipPath><clipPath id="d3399c642b"><path d="M 7 8 L 10 8 L 10 12 L 7 12 Z M 7 8 "/></clipPath><clipPath id="f693efdbf9"><path d="M 0.484375 15.847656 L 9.800781 1.964844 L 18.933594 8.09375 L 9.617188 21.976562 Z M 0.484375 15.847656 "/></clipPath><clipPath id="49080dc808"><path d="M 0.484375 15.847656 L 9.800781 1.964844 L 18.933594 8.09375 L 9.617188 21.976562 Z M 0.484375 15.847656 "/></clipPath><clipPath id="26e3d24d5b"><path d="M 7 7 L 16 7 L 16 15 L 7 15 Z M 7 7 "/></clipPath><clipPath id="5339b7dd8b"><path d="M 0.484375 15.847656 L 9.800781 1.964844 L 18.933594 8.09375 L 9.617188 21.976562 Z M 0.484375 15.847656 "/></clipPath><clipPath id="5c6afed5c6"><path d="M 0.484375 15.847656 L 9.800781 1.964844 L 18.933594 8.09375 L 9.617188 21.976562 Z M 0.484375 15.847656 "/></clipPath><clipPath id="54703d38ba"><path d="M 5 10 L 9 10 L 9 13 L 5 13 Z M 5 10 "/></clipPath><clipPath id="9739e8bef6"><path d="M 0.484375 15.847656 L 9.800781 1.964844 L 18.933594 8.09375 L 9.617188 21.976562 Z M 0.484375 15.847656 "/></clipPath><clipPath id="d10c001381"><path d="M 0.484375 15.847656 L 9.800781 1.964844 L 18.933594 8.09375 L 9.617188 21.976562 Z M 0.484375 15.847656 "/></clipPath><clipPath id="5bd92c13c6"><path d="M 12 10 L 14 10 L 14 13 L 12 13 Z M 12 10 "/></clipPath><clipPath id="892981e1f6"><path d="M 0.484375 15.847656 L 9.800781 1.964844 L 18.933594 8.09375 L 9.617188 21.976562 Z M 0.484375 15.847656 "/></clipPath><clipPath id="89c227271a"><path d="M 0.484375 15.847656 L 9.800781 1.964844 L 18.933594 8.09375 L 9.617188 21.976562 Z M 0.484375 15.847656 "/></clipPath><clipPath id="e3560dc036"><path d="M 9 8 L 14 8 L 14 13 L 9 13 Z M 9 8 "/></clipPath><clipPath id="ced59bc775"><path d="M 0.484375 15.847656 L 9.800781 1.964844 L 18.933594 8.09375 L 9.617188 21.976562 Z M 0.484375 15.847656 "/></clipPath><clipPath id="6ad5d01855"><path d="M 0.484375 15.847656 L 9.800781 1.964844 L 18.933594 8.09375 L 9.617188 21.976562 Z M 0.484375 15.847656 "/></clipPath><clipPath id="5dd19cd45e"><path d="M 7 12 L 11 12 L 11 15 L 7 15 Z M 7 12 "/></clipPath><clipPath id="71fce390c2"><path d="M 0.484375 15.847656 L 9.800781 1.964844 L 18.933594 8.09375 L 9.617188 21.976562 Z M 0.484375 15.847656 "/></clipPath><clipPath id="06928388dd"><path d="M 0.484375 15.847656 L 9.800781 1.964844 L 18.933594 8.09375 L 9.617188 21.976562 Z M 0.484375 15.847656 "/></clipPath><clipPath id="c5caef6b3e"><path d="M 5 16 L 7 16 L 7 17 L 5 17 Z M 5 16 "/></clipPath><clipPath id="032de10c4a"><path d="M 0.484375 15.847656 L 9.800781 1.964844 L 18.933594 8.09375 L 9.617188 21.976562 Z M 0.484375 15.847656 "/></clipPath><clipPath id="b4790a665c"><path d="M 0.484375 15.847656 L 9.800781 1.964844 L 18.933594 8.09375 L 9.617188 21.976562 Z M 0.484375 15.847656 "/></clipPath><clipPath id="afde49cc92"><path d="M 41.023438 11.472656 L 43.476562 11.472656 L 43.476562 13.925781 L 41.023438 13.925781 Z M 41.023438 11.472656 "/></clipPath><clipPath id="517232afcb"><path d="M 42.25 11.472656 C 41.574219 11.472656 41.023438 12.019531 41.023438 12.699219 C 41.023438 13.375 41.574219 13.925781 42.25 13.925781 C 42.925781 13.925781 43.476562 13.375 43.476562 12.699219 C 43.476562 12.019531 42.925781 11.472656 42.25 11.472656 Z M 42.25 11.472656 "/></clipPath><clipPath id="b73fa00bf7"><path d="M 49.445312 11.472656 L 51.898438 11.472656 L 51.898438 13.925781 L 49.445312 13.925781 Z M 49.445312 11.472656 "/></clipPath><clipPath id="2a03abf151"><path d="M 50.671875 11.472656 C 49.992188 11.472656 49.445312 12.019531 49.445312 12.699219 C 49.445312 13.375 49.992188 13.925781 50.671875 13.925781 C 51.347656 13.925781 51.898438 13.375 51.898438 12.699219 C 51.898438 12.019531 51.347656 11.472656 50.671875 11.472656 Z M 50.671875 11.472656 "/></clipPath></defs><g id="7d5c0a90a0"><g style="fill:#2f2d80;fill-opacity:1;"><g transform="translate(7.796905, 23.228712)"><path style="stroke:none" d="M 7.953125 -4.78125 C 8.472656 -4.59375 8.878906 -4.300781 9.171875 -3.90625 C 9.472656 -3.519531 9.625 -3.054688 9.625 -2.515625 C 9.625 -1.710938 9.300781 -1.09375 8.65625 -0.65625 C 8.007812 -0.21875 7.078125 0 5.859375 0 L 0.921875 0 L 0.921875 -9.15625 L 5.59375 -9.15625 C 6.757812 -9.15625 7.648438 -8.9375 8.265625 -8.5 C 8.878906 -8.070312 9.1875 -7.492188 9.1875 -6.765625 C 9.1875 -6.328125 9.078125 -5.9375 8.859375 -5.59375 C 8.648438 -5.25 8.347656 -4.976562 7.953125 -4.78125 Z M 3.484375 -7.28125 L 3.484375 -5.515625 L 5.25 -5.515625 C 6.125 -5.515625 6.5625 -5.8125 6.5625 -6.40625 C 6.5625 -6.988281 6.125 -7.28125 5.25 -7.28125 Z M 5.65625 -1.875 C 6.5625 -1.875 7.015625 -2.179688 7.015625 -2.796875 C 7.015625 -3.421875 6.5625 -3.734375 5.65625 -3.734375 L 3.484375 -3.734375 L 3.484375 -1.875 Z M 5.65625 -1.875 "/></g></g><g style="fill:#2f2d80;fill-opacity:1;"><g transform="translate(16.849795, 23.228712)"><path style="stroke:none" d="M 4.359375 0.125 C 3.597656 0.125 2.910156 -0.03125 2.296875 -0.34375 C 1.691406 -0.664062 1.21875 -1.101562 0.875 -1.65625 C 0.53125 -2.21875 0.359375 -2.851562 0.359375 -3.5625 C 0.359375 -4.257812 0.53125 -4.882812 0.875 -5.4375 C 1.21875 -6 1.691406 -6.429688 2.296875 -6.734375 C 2.898438 -7.046875 3.585938 -7.203125 4.359375 -7.203125 C 5.117188 -7.203125 5.804688 -7.046875 6.421875 -6.734375 C 7.035156 -6.429688 7.507812 -6 7.84375 -5.4375 C 8.1875 -4.882812 8.359375 -4.257812 8.359375 -3.5625 C 8.359375 -2.851562 8.1875 -2.21875 7.84375 -1.65625 C 7.507812 -1.101562 7.035156 -0.664062 6.421875 -0.34375 C 5.804688 -0.03125 5.117188 0.125 4.359375 0.125 Z M 4.359375 -1.859375 C 4.796875 -1.859375 5.148438 -2.007812 5.421875 -2.3125 C 5.703125 -2.613281 5.84375 -3.03125 5.84375 -3.5625 C 5.84375 -4.082031 5.703125 -4.488281 5.421875 -4.78125 C 5.148438 -5.082031 4.796875 -5.234375 4.359375 -5.234375 C 3.921875 -5.234375 3.5625 -5.082031 3.28125 -4.78125 C 3 -4.488281 2.859375 -4.082031 2.859375 -3.5625 C 2.859375 -3.03125 3 -2.613281 3.28125 -2.3125 C 3.5625 -2.007812 3.921875 -1.859375 4.359375 -1.859375 Z M 4.359375 -1.859375 "/></g></g><g style="fill:#2f2d80;fill-opacity:1;"><g transform="translate(24.557047, 23.228712)"><path style="stroke:none" d="M 4.359375 0.125 C 3.597656 0.125 2.910156 -0.03125 2.296875 -0.34375 C 1.691406 -0.664062 1.21875 -1.101562 0.875 -1.65625 C 0.53125 -2.21875 0.359375 -2.851562 0.359375 -3.5625 C 0.359375 -4.257812 0.53125 -4.882812 0.875 -5.4375 C 1.21875 -6 1.691406 -6.429688 2.296875 -6.734375 C 2.898438 -7.046875 3.585938 -7.203125 4.359375 -7.203125 C 5.117188 -7.203125 5.804688 -7.046875 6.421875 -6.734375 C 7.035156 -6.429688 7.507812 -6 7.84375 -5.4375 C 8.1875 -4.882812 8.359375 -4.257812 8.359375 -3.5625 C 8.359375 -2.851562 8.1875 -2.21875 7.84375 -1.65625 C 7.507812 -1.101562 7.035156 -0.664062 6.421875 -0.34375 C 5.804688 -0.03125 5.117188 0.125 4.359375 0.125 Z M 4.359375 -1.859375 C 4.796875 -1.859375 5.148438 -2.007812 5.421875 -2.3125 C 5.703125 -2.613281 5.84375 -3.03125 5.84375 -3.5625 C 5.84375 -4.082031 5.703125 -4.488281 5.421875 -4.78125 C 5.148438 -5.082031 4.796875 -5.234375 4.359375 -5.234375 C 3.921875 -5.234375 3.5625 -5.082031 3.28125 -4.78125 C 3 -4.488281 2.859375 -4.082031 2.859375 -3.5625 C 2.859375 -3.03125 3 -2.613281 3.28125 -2.3125 C 3.5625 -2.007812 3.921875 -1.859375 4.359375 -1.859375 Z M 4.359375 -1.859375 "/></g></g><g style="fill:#2f2d80;fill-opacity:1;"><g transform="translate(32.264299, 23.228712)"><path style="stroke:none" d="M 4.015625 -2.484375 L 3.28125 -1.734375 L 3.28125 0 L 0.796875 0 L 0.796875 -9.703125 L 3.28125 -9.703125 L 3.28125 -4.609375 L 5.8125 -7.09375 L 8.765625 -7.09375 L 5.8125 -4.046875 L 9.015625 0 L 6 0 Z M 4.015625 -2.484375 "/></g></g><g style="fill:#2f2d80;fill-opacity:1;"><g transform="translate(40.232832, 23.228712)"><path style="stroke:none" d="M 9.1875 0 L 9.15625 -4.859375 L 6.796875 -0.90625 L 5.65625 -0.90625 L 3.3125 -4.71875 L 3.3125 0 L 0.921875 0 L 0.921875 -9.15625 L 3.046875 -9.15625 L 6.265625 -3.875 L 9.40625 -9.15625 L 11.53125 -9.15625 L 11.5625 0 Z M 9.1875 0 "/></g></g><g style="fill:#2f2d80;fill-opacity:1;"><g transform="translate(51.702636, 23.228712)"><path style="stroke:none" d="M 3.8125 -7.203125 C 4.988281 -7.203125 5.882812 -6.929688 6.5 -6.390625 C 7.125 -5.859375 7.4375 -5.039062 7.4375 -3.9375 L 7.4375 0 L 5.125 0 L 5.125 -0.921875 C 4.769531 -0.222656 4.070312 0.125 3.03125 0.125 C 2.476562 0.125 2 0.03125 1.59375 -0.15625 C 1.195312 -0.351562 0.894531 -0.613281 0.6875 -0.9375 C 0.488281 -1.269531 0.390625 -1.644531 0.390625 -2.0625 C 0.390625 -2.738281 0.644531 -3.257812 1.15625 -3.625 C 1.675781 -4 2.472656 -4.1875 3.546875 -4.1875 L 4.953125 -4.1875 C 4.910156 -4.9375 4.410156 -5.3125 3.453125 -5.3125 C 3.109375 -5.3125 2.757812 -5.253906 2.40625 -5.140625 C 2.0625 -5.035156 1.769531 -4.882812 1.53125 -4.6875 L 0.6875 -6.375 C 1.082031 -6.644531 1.5625 -6.847656 2.125 -6.984375 C 2.6875 -7.128906 3.25 -7.203125 3.8125 -7.203125 Z M 3.734375 -1.453125 C 4.015625 -1.453125 4.265625 -1.519531 4.484375 -1.65625 C 4.703125 -1.800781 4.859375 -2.007812 4.953125 -2.28125 L 4.953125 -2.890625 L 3.890625 -2.890625 C 3.160156 -2.890625 2.796875 -2.648438 2.796875 -2.171875 C 2.796875 -1.953125 2.878906 -1.773438 3.046875 -1.640625 C 3.210938 -1.515625 3.441406 -1.453125 3.734375 -1.453125 Z M 3.734375 -1.453125 "/></g></g><g style="fill:#2f2d80;fill-opacity:1;"><g transform="translate(58.913432, 23.228712)"><path style="stroke:none" d="M 3.171875 -6.234375 C 3.421875 -6.554688 3.75 -6.796875 4.15625 -6.953125 C 4.5625 -7.117188 5.023438 -7.203125 5.546875 -7.203125 L 5.546875 -4.96875 C 5.316406 -5 5.128906 -5.015625 4.984375 -5.015625 C 4.453125 -5.015625 4.035156 -4.867188 3.734375 -4.578125 C 3.429688 -4.285156 3.28125 -3.84375 3.28125 -3.25 L 3.28125 0 L 0.796875 0 L 0.796875 -7.09375 L 3.171875 -7.09375 Z M 3.171875 -6.234375 "/></g></g><g style="fill:#2f2d80;fill-opacity:1;"><g transform="translate(63.707314, 23.228712)"><path style="stroke:none" d="M 4.359375 0.125 C 3.597656 0.125 2.910156 -0.03125 2.296875 -0.34375 C 1.691406 -0.664062 1.21875 -1.101562 0.875 -1.65625 C 0.53125 -2.21875 0.359375 -2.851562 0.359375 -3.5625 C 0.359375 -4.257812 0.53125 -4.882812 0.875 -5.4375 C 1.21875 -6 1.691406 -6.429688 2.296875 -6.734375 C 2.898438 -7.046875 3.585938 -7.203125 4.359375 -7.203125 C 5.117188 -7.203125 5.804688 -7.046875 6.421875 -6.734375 C 7.035156 -6.429688 7.507812 -6 7.84375 -5.4375 C 8.1875 -4.882812 8.359375 -4.257812 8.359375 -3.5625 C 8.359375 -2.851562 8.1875 -2.21875 7.84375 -1.65625 C 7.507812 -1.101562 7.035156 -0.664062 6.421875 -0.34375 C 5.804688 -0.03125 5.117188 0.125 4.359375 0.125 Z M 4.359375 -1.859375 C 4.796875 -1.859375 5.148438 -2.007812 5.421875 -2.3125 C 5.703125 -2.613281 5.84375 -3.03125 5.84375 -3.5625 C 5.84375 -4.082031 5.703125 -4.488281 5.421875 -4.78125 C 5.148438 -5.082031 4.796875 -5.234375 4.359375 -5.234375 C 3.921875 -5.234375 3.5625 -5.082031 3.28125 -4.78125 C 3 -4.488281 2.859375 -4.082031 2.859375 -3.5625 C 2.859375 -3.03125 3 -2.613281 3.28125 -2.3125 C 3.5625 -2.007812 3.921875 -1.859375 4.359375 -1.859375 Z M 4.359375 -1.859375 "/></g></g><g clip-rule="nonzero" clip-path="url(#2c58aa4ec1)"><g clip-rule="nonzero" clip-path="url(#10cb6416d6)"><g clip-rule="nonzero" clip-path="url(#0e71ff70ce)"><path style=" stroke:none;fill-rule:nonzero;fill:#ffffff;fill-opacity:1;" d="M 14.816406 13.855469 C 13.0625 14.578125 11.261719 15.738281 9.742188 17.121094 C 8.984375 17.804688 8.316406 18.53125 7.757812 19.269531 L 7.46875 19.648438 L 6.277344 16.976562 C 5.75 17.332031 4.589844 17.945312 3.355469 17.558594 C 2.757812 17.371094 2.359375 17.070312 2.136719 16.632812 C 1.847656 16.058594 1.457031 14.402344 3.03125 13.09375 C 4.183594 12.046875 6.003906 11.804688 6.382812 11.765625 C 6.507812 11.6875 6.621094 11.601562 6.726562 11.503906 C 7.152344 11.121094 7.40625 10.597656 7.699219 9.996094 C 8.121094 9.136719 8.640625 8.070312 9.878906 6.941406 C 10.03125 6.804688 10.195312 6.667969 10.363281 6.53125 C 11.828125 5.355469 13 4.933594 13.945312 5.234375 C 14.363281 5.371094 15.449219 6.105469 15.835938 7.503906 C 16.058594 8.242188 15.820312 9.027344 15.402344 9.8125 C 15.203125 10.183594 14.820312 10.761719 14.125 11.390625 C 13.933594 11.566406 13.761719 11.703125 13.632812 11.804688 L 15.15625 13.710938 Z M 14.816406 13.855469 "/></g></g></g><g clip-rule="nonzero" clip-path="url(#c7cbcf3fd5)"><g clip-rule="nonzero" clip-path="url(#6762b0a5bf)"><g clip-rule="nonzero" clip-path="url(#a508de66ae)"><path style=" stroke:none;fill-rule:nonzero;fill:#2f2d80;fill-opacity:1;" d="M 15.429688 7.59375 C 15.671875 8.394531 15.457031 9.15625 15.082031 9.800781 C 14.414062 10.960938 13.230469 11.746094 13.230469 11.746094 L 14.703125 13.59375 C 14.027344 13.875 13.34375 14.21875 12.671875 14.613281 C 10.710938 15.761719 8.855469 17.351562 7.53125 19.097656 L 6.390625 16.542969 C 6.390625 16.542969 4.953125 17.765625 3.4375 17.289062 C 2.472656 16.988281 1.910156 15.976562 2.398438 14.425781 C 3.117188 12.371094 6.480469 12.039062 6.480469 12.039062 C 8.152344 11.046875 7.707031 9.023438 10.539062 6.753906 C 13.363281 4.492188 14.753906 5.347656 15.429688 7.59375 Z M 15.429688 7.59375 "/></g></g></g><g clip-rule="nonzero" clip-path="url(#6632f9bebc)"><g clip-rule="nonzero" clip-path="url(#f5005736b0)"><g clip-rule="nonzero" clip-path="url(#ef04c23264)"><path style=" stroke:none;fill-rule:nonzero;fill:#2f2d80;fill-opacity:1;" d="M 6.214844 16.585938 C 6.214844 16.585938 5.070312 17.160156 4.394531 17.089844 C 3.699219 17.015625 3.429688 16.699219 3.5625 16.6875 C 3.695312 16.675781 4.355469 16.886719 4.652344 16.578125 C 4.953125 16.269531 4.179688 16.054688 4.546875 15.941406 C 4.914062 15.828125 5.441406 15.933594 5.777344 16.105469 C 6.113281 16.277344 6.214844 16.585938 6.214844 16.585938 Z M 6.214844 16.585938 "/></g></g></g><g clip-rule="nonzero" clip-path="url(#d3399c642b)"><g clip-rule="nonzero" clip-path="url(#f693efdbf9)"><g clip-rule="nonzero" clip-path="url(#49080dc808)"><path style=" stroke:none;fill-rule:nonzero;fill:#2f2d80;fill-opacity:1;" d="M 7.433594 11.527344 C 7.433594 11.527344 8.171875 11.015625 8.671875 10.027344 C 9.167969 9.039062 9.632812 8.425781 9.84375 8.65625 C 10.050781 8.886719 10.066406 9.484375 9.292969 10.378906 C 8.519531 11.277344 7.433594 11.527344 7.433594 11.527344 Z M 7.433594 11.527344 "/></g></g></g><g clip-rule="nonzero" clip-path="url(#26e3d24d5b)"><g clip-rule="nonzero" clip-path="url(#5339b7dd8b)"><g clip-rule="nonzero" clip-path="url(#5c6afed5c6)"><path style=" stroke:none;fill-rule:nonzero;fill:#2f2d80;fill-opacity:1;" d="M 15.230469 8.8125 C 15.226562 8.832031 15.148438 9.421875 15.082031 9.800781 C 14.414062 10.960938 13.230469 11.746094 13.230469 11.746094 L 14.703125 13.59375 C 14.027344 13.875 13.34375 14.21875 12.671875 14.613281 C 12.78125 14.386719 12.808594 14.101562 12.648438 13.757812 C 12.167969 12.726562 11.648438 12.269531 11.648438 12.269531 C 11.648438 12.269531 11.054688 13.632812 10.226562 14.179688 C 9.40625 14.722656 7.609375 14.523438 7.582031 14.519531 C 7.597656 14.511719 8.4375 14.050781 8.828125 13.644531 C 9.21875 13.238281 9.21875 13.238281 9.21875 13.238281 C 8.578125 12.988281 7.980469 12.738281 8.339844 12.382812 C 8.339844 12.382812 10.371094 12.65625 11.984375 10.621094 C 13.601562 8.585938 13.015625 7.722656 13.789062 7.898438 C 14.5625 8.074219 14.132812 9.960938 14.574219 9.714844 C 15.007812 9.476562 15.222656 8.832031 15.230469 8.8125 Z M 15.230469 8.8125 "/></g></g></g><g clip-rule="nonzero" clip-path="url(#54703d38ba)"><g clip-rule="nonzero" clip-path="url(#9739e8bef6)"><g clip-rule="nonzero" clip-path="url(#d10c001381)"><path style=" stroke:none;fill-rule:nonzero;fill:#ffffff;fill-opacity:1;" d="M 5.515625 12.179688 C 5.515625 12.179688 6.644531 12.140625 7.53125 11.804688 C 8.417969 11.472656 8.828125 10.734375 8.828125 10.734375 C 8.828125 10.734375 8.042969 11.289062 7.433594 11.527344 C 6.824219 11.769531 6.6875 11.789062 6.6875 11.789062 Z M 5.515625 12.179688 "/></g></g></g><g clip-rule="nonzero" clip-path="url(#5bd92c13c6)"><g clip-rule="nonzero" clip-path="url(#892981e1f6)"><g clip-rule="nonzero" clip-path="url(#89c227271a)"><path style=" stroke:none;fill-rule:nonzero;fill:#ffffff;fill-opacity:1;" d="M 12.765625 10.949219 C 12.789062 11.128906 13.226562 11.734375 13.574219 12.175781 L 13.632812 11.804688 C 13.371094 11.496094 13.15625 11.214844 12.980469 10.960938 Z M 12.765625 10.949219 "/></g></g></g><g clip-rule="nonzero" clip-path="url(#e3560dc036)"><g clip-rule="nonzero" clip-path="url(#ced59bc775)"><g clip-rule="nonzero" clip-path="url(#6ad5d01855)"><path style=" stroke:none;fill-rule:nonzero;fill:#ffffff;fill-opacity:1;" d="M 13.882812 8.820312 C 13.882812 8.820312 13.925781 9.988281 12.308594 11.285156 C 10.6875 12.585938 9.316406 12.796875 9.316406 12.796875 C 9.316406 12.796875 10.742188 12.84375 12.308594 11.753906 C 13.277344 11.042969 13.019531 11.230469 13.492188 10.585938 C 13.96875 9.941406 13.882812 8.820312 13.882812 8.820312 Z M 13.882812 8.820312 "/></g></g></g><g clip-rule="nonzero" clip-path="url(#5dd19cd45e)"><g clip-rule="nonzero" clip-path="url(#71fce390c2)"><g clip-rule="nonzero" clip-path="url(#06928388dd)"><path style=" stroke:none;fill-rule:nonzero;fill:#ffffff;fill-opacity:1;" d="M 10.179688 12.621094 C 9.847656 13.558594 8.710938 14.519531 7.488281 14.765625 C 7.488281 14.765625 7.96875 14.925781 9.035156 14.382812 C 10.101562 13.84375 10.714844 12.429688 10.714844 12.429688 Z M 10.179688 12.621094 "/></g></g></g><g clip-rule="nonzero" clip-path="url(#c5caef6b3e)"><g clip-rule="nonzero" clip-path="url(#032de10c4a)"><g clip-rule="nonzero" clip-path="url(#b4790a665c)"><path style=" stroke:none;fill-rule:nonzero;fill:#ffffff;fill-opacity:1;" d="M 6.507812 16.886719 C 6.496094 16.804688 6.441406 16.539062 6.269531 16.347656 C 6.097656 16.160156 5.121094 16.074219 5.121094 16.074219 C 5.121094 16.074219 5.765625 16.304688 5.96875 16.464844 C 6.175781 16.621094 6.277344 16.976562 6.277344 16.976562 Z M 6.507812 16.886719 "/></g></g></g><g clip-rule="nonzero" clip-path="url(#afde49cc92)"><g clip-rule="nonzero" clip-path="url(#517232afcb)"><path style=" stroke:none;fill-rule:nonzero;fill:#2f2d80;fill-opacity:1;" d="M 41.023438 11.472656 L 43.476562 11.472656 L 43.476562 13.925781 L 41.023438 13.925781 Z M 41.023438 11.472656 "/></g></g><g clip-rule="nonzero" clip-path="url(#b73fa00bf7)"><g clip-rule="nonzero" clip-path="url(#2a03abf151)"><path style=" stroke:none;fill-rule:nonzero;fill:#2f2d80;fill-opacity:1;" d="M 49.445312 11.472656 L 51.898438 11.472656 L 51.898438 13.925781 L 49.445312 13.925781 Z M 49.445312 11.472656 "/></g></g></g></svg>